<?xml version="1.0" standalone="no"?>
<!DOCTYPE svg PUBLIC "-//W3C//DTD SVG 20010904//EN"
 "http://www.w3.org/TR/2001/REC-SVG-20010904/DTD/svg10.dtd">
<svg version="1.0" xmlns="http://www.w3.org/2000/svg"
 width="920.000000pt" height="512.000000pt" viewBox="0 0 920.000000 512.000000"
 preserveAspectRatio="xMidYMid meet">

<g transform="translate(0.000000,512.000000) scale(0.100000,-0.100000)"
fill="#000000" stroke="none">
<path d="M2190 4903 c-42 -15 -100 -99 -100 -143 0 -31 36 -95 65 -119 15 -11
86 -43 158 -72 73 -28 195 -76 272 -106 77 -30 169 -66 205 -80 36 -14 68 -29
73 -32 4 -4 14 -43 22 -87 7 -43 26 -142 40 -219 14 -77 37 -201 51 -275 14
-74 45 -245 70 -380 65 -351 73 -395 89 -490 15 -86 39 -218 75 -410 11 -58
33 -179 49 -270 88 -488 87 -484 151 -522 21 -12 60 -23 98 -26 34 -2 62 -7
62 -9 0 -3 -40 -117 -90 -255 -49 -137 -90 -264 -90 -282 0 -45 38 -98 80
-113 19 -7 65 -12 103 -12 37 -1 67 -5 67 -10 0 -5 -10 -22 -23 -38 -37 -45
-77 -147 -86 -217 -28 -240 109 -452 338 -522 66 -20 206 -18 273 4 303 100
427 456 252 720 -19 30 -34 56 -31 58 2 2 241 3 531 2 l527 -3 -30 -42 c-136
-187 -115 -451 48 -613 99 -98 199 -140 336 -140 137 0 237 42 336 140 164
163 185 431 47 611 -15 20 -28 40 -28 43 0 3 38 6 85 6 138 0 195 38 195 131
0 56 -33 104 -83 118 -19 5 -581 9 -1321 10 -708 1 -1292 3 -1296 6 -4 2 25
94 64 202 l71 198 1240 5 c1127 5 1243 7 1270 21 62 34 64 38 170 374 179 566
290 910 315 985 44 130 247 769 256 803 3 15 10 30 15 33 29 17 -13 130 -61
164 -39 27 -80 32 -410 45 -74 3 -184 7 -245 10 -60 3 -180 7 -265 10 -85 3
-182 8 -215 10 -33 2 -130 7 -215 10 -85 3 -186 7 -225 10 -38 2 -158 7 -265
10 -107 4 -208 8 -225 10 -16 2 -113 6 -215 10 -102 3 -196 8 -210 10 -14 2
-131 7 -260 11 -129 3 -238 8 -241 10 -4 2 -65 4 -137 5 -110 1 -136 -2 -162
-18 -90 -52 -99 -176 -18 -249 36 -34 15 -31 388 -49 58 -3 137 -8 175 -10 39
-3 160 -7 270 -10 110 -3 225 -8 255 -10 30 -2 134 -7 230 -11 96 -3 190 -7
208 -9 18 -1 126 -6 240 -9 114 -4 227 -9 252 -11 25 -2 135 -7 245 -11 110
-3 207 -7 215 -9 8 -2 105 -6 215 -9 195 -7 293 -14 307 -22 3 -2 0 -21 -7
-42 -8 -20 -44 -129 -80 -242 -36 -113 -76 -239 -90 -280 -13 -41 -47 -149
-76 -240 -28 -91 -78 -246 -109 -345 -32 -99 -92 -283 -133 -410 l-74 -230
-1276 -3 c-1209 -2 -1276 -1 -1281 15 -3 10 -12 56 -20 103 -15 84 -62 341
-130 705 -68 367 -168 911 -182 990 -7 44 -25 141 -38 215 -14 74 -36 198 -50
275 -48 266 -52 277 -128 316 -22 11 -135 58 -252 104 -116 45 -281 110 -366
144 -150 59 -211 72 -260 54z m1931 -4049 c63 -43 94 -105 93 -184 -1 -98 -41
-157 -134 -199 -59 -27 -104 -26 -165 3 -87 41 -135 112 -135 199 0 83 71 183
148 208 15 5 55 7 90 5 49 -3 72 -10 103 -32z m1745 17 c23 -10 45 -24 48 -30
4 -6 12 -8 18 -5 6 4 8 2 4 -4 -3 -6 -1 -14 5 -18 22 -13 51 -96 51 -144 -1
-94 -48 -163 -135 -200 -119 -52 -254 14 -292 143 -52 176 133 334 301 258z"/>
</g>
</svg>
